HIERARCHY
ROOT root
{
	OFFSET 0.000000 0.000000 0.000000
	CHANNELS 6 Xposition Yposition Zposition Zrotation Yrotation Xrotation
	JOINT lhip
	{
		OFFSET 0.058581 -0.082280 -0.017664
		CHANNELS 3 Zrotation Yrotation Xrotation
		JOINT lknee
		{
			OFFSET 0.043451 -0.386469 0.008037
			CHANNELS 3 Zrotation Yrotation Xrotation
			JOINT lankle
			{
				OFFSET -0.014790 -0.426874 -0.037428
				CHANNELS 3 Zrotation Yrotation Xrotation
				JOINT ltoe
				{
					OFFSET 0.041054 -0.060286 0.122042
					CHANNELS 3 Zrotation Yrotation Xrotation
					End Site
					{
						OFFSET 0.000000 0.000000 0.000000
					}
				}
			}
		}
	}
	JOINT rhip
	{
		OFFSET -0.060310 -0.090513 -0.013543
		CHANNELS 3 Zrotation Yrotation Xrotation
		JOINT rknee
		{
			OFFSET -0.043257 -0.383688 -0.004843
			CHANNELS 3 Zrotation Yrotation Xrotation
			JOINT rankle
			{
				OFFSET 0.019056 -0.420046 -0.034562
				CHANNELS 3 Zrotation Yrotation Xrotation
				JOINT rtoe
				{
					OFFSET -0.034840 -0.062106 0.130323
					CHANNELS 3 Zrotation Yrotation Xrotation
					End Site
					{
						OFFSET 0.000000 0.000000 0.000000
					}
				}
			}
		}
	}
	JOINT lowerback
	{
		OFFSET 0.004439 0.124404 -0.038385
		CHANNELS 3 Zrotation Yrotation Xrotation
		JOINT upperback
		{
			OFFSET 0.004488 0.137956 0.026820
			CHANNELS 3 Zrotation Yrotation Xrotation
			JOINT chest
			{
				OFFSET -0.002265 0.056032 0.002855
				CHANNELS 3 Zrotation Yrotation Xrotation
				JOINT lowerneck
				{
					OFFSET -0.013390 0.211636 -0.033468
					CHANNELS 3 Zrotation Yrotation Xrotation
					JOINT upperneck
					{
						OFFSET 0.010113 0.088937 0.050410
						CHANNELS 3 Zrotation Yrotation Xrotation
						End Site
						{
							OFFSET 0.000000 0.000000 0.000000
						}
					}
				}
				JOINT lclavicle
				{
					OFFSET 0.071702 0.114000 -0.018898
					CHANNELS 3 Zrotation Yrotation Xrotation
					JOINT lshoulder
					{
						OFFSET 0.122921 0.045205 -0.019046
						CHANNELS 3 Zrotation Yrotation Xrotation
						JOINT lelbow
						{
							OFFSET 0.255332 -0.015649 -0.022946
							CHANNELS 3 Zrotation Yrotation Xrotation
							JOINT lwrist
							{
								OFFSET 0.265709 0.012698 -0.007375
								CHANNELS 3 Zrotation Yrotation Xrotation
								End Site
								{
									OFFSET 0.000000 0.000000 0.000000
								}
							}
						}
					}
				}
				JOINT rclavicle
				{
					OFFSET -0.082954 0.112472 -0.023707
					CHANNELS 3 Zrotation Yrotation Xrotation
					JOINT rshoulder
					{
						OFFSET -0.113228 0.046853 -0.008472
						CHANNELS 3 Zrotation Yrotation Xrotation
						JOINT relbow
						{
							OFFSET -0.260127 -0.014369 -0.031269
							CHANNELS 3 Zrotation Yrotation Xrotation
							JOINT rwrist
							{
								OFFSET -0.269108 0.006794 -0.006027
								CHANNELS 3 Zrotation Yrotation Xrotation
								End Site
								{
									OFFSET 0.000000 0.000000 0.000000
								}
							}
						}
					}
				}
			}
		}
	}
}
MOTION
Frames: 12
Frame Time: 0.033333
0.712251 0.640616 0.783870 80.779368 -4.623584 85.803649 29.352674 23.438223 -35.701654 -15.267936 15.894057 64.203408 -3.247072 -1.335356 -17.373252 0.000000 -0.000000 0.000000 -12.333971 -7.970804 -59.491337 2.411440 -12.144442 81.350214 -0.242581 -4.054425 -20.780490 0.000000 -0.000000 0.000000 -6.589769 -6.971387 37.655716 -0.044708 -6.493389 -0.621294 0.833378 -6.985725 -0.205894 -7.977884 12.745164 -0.083445 7.745708 20.427576 -11.341506 -22.555960 -16.964234 6.954233 -51.765124 -13.948834 4.037374 10.197939 -41.607701 7.327791 28.875108 3.096495 -5.808899 12.192505 1.545613 9.191519 51.483270 -16.388960 -7.532690 -18.662868 19.996211 -10.852104 1.240176 -0.783829 -10.259774 
0.713846 0.651845 0.724751 79.523978 -4.064479 84.679276 31.649181 25.707936 -40.976792 -13.414167 18.511311 76.588381 0.417814 0.060356 -24.567518 0.000000 -0.000000 0.000000 -14.013213 -7.274894 -66.716988 1.839287 -13.083422 92.364666 -0.768240 -4.435388 -23.848795 0.000000 -0.000000 0.000000 -6.941883 -7.973098 40.532569 0.614401 -6.202994 -1.495370 0.929491 -7.259656 -0.674298 -8.744169 13.223616 -0.930824 6.956742 21.899451 -12.839717 -23.545102 -17.372696 8.626372 -53.981045 -13.826516 2.168520 12.378204 -37.536202 2.908904 32.271766 6.221204 -7.046369 12.630287 2.187762 9.699956 52.969907 -14.335696 -8.417383 -19.787187 18.342573 -13.611153 -0.071876 -1.465913 -12.162442 
0.714674 0.662915 0.665214 78.556611 -3.008656 82.190335 34.775179 27.216532 -46.569712 -12.083156 18.223475 89.480288 0.377757 -0.193965 -27.502444 0.000000 -0.000000 0.000000 -15.725223 -6.627333 -72.660902 0.696100 -14.020341 102.539281 -1.227938 -4.229594 -25.791229 0.000000 -0.000000 0.000000 -7.161022 -8.938831 44.850575 1.754984 -6.304779 -1.945641 1.319981 -7.416570 -1.651742 -9.813176 14.257509 -1.754777 6.217303 22.656300 -14.634565 -23.580659 -18.751197 9.634627 -55.201544 -13.960970 0.534648 14.734604 -34.188508 -2.925763 35.801504 9.347914 -8.403996 13.252736 3.162840 9.479082 54.580773 -13.167505 -9.153712 -21.564300 18.371143 -17.594207 -1.168418 -2.427019 -14.480461 
0.715757 0.673973 0.607458 77.146827 -2.511413 78.326300 37.652373 28.114737 -50.259830 -10.817682 17.556744 100.917428 0.717295 0.139371 -30.367041 0.000000 -0.000000 0.000000 -16.466777 -5.886442 -77.855614 0.485800 -13.397801 111.570641 -1.744346 -4.756570 -26.446865 0.000000 -0.000000 0.000000 -8.010868 -9.199026 49.863273 2.942378 -6.497518 -1.986373 2.068684 -7.428854 -2.493263 -11.323514 14.877015 -3.121195 5.688214 23.175214 -16.027792 -22.592505 -20.880111 9.569644 -54.318439 -15.489326 -1.869540 16.724808 -30.241980 -11.944751 42.592867 10.931756 -6.821098 14.005134 4.538819 8.563948 56.019485 -12.664655 -9.452377 -23.088750 18.379273 -23.040068 -2.539959 -3.202384 -15.175305 
0.717745 0.685234 0.552481 75.336767 -2.430649 72.939375 40.609847 28.139153 -52.565041 -10.400313 16.296724 111.354929 0.544565 1.178353 -31.998925 0.000000 -0.000000 0.000000 -17.967459 -4.324374 -81.972282 0.634914 -13.009158 119.672401 -1.736392 -4.841372 -25.504813 0.000000 -0.000000 0.000000 -8.667636 -9.509335 55.169707 3.566534 -6.338353 -2.687383 2.666769 -7.400963 -2.529041 -12.808526 15.805362 -3.816069 5.215276 23.219931 -17.622169 -20.617649 -22.625365 8.776015 -50.796403 -17.945742 -5.525785 16.907730 -26.236091 -22.185491 44.899670 11.942425 -7.555276 14.421626 5.323139 7.725728 57.037086 -12.125484 -9.454556 -24.019021 17.325400 -28.537112 -5.424457 -4.281320 -13.606487 
0.722078 0.696130 0.502289 73.982282 -3.589843 65.684351 42.239890 26.641134 -52.962757 -10.649345 14.739270 120.449821 -0.081823 2.973957 -33.127409 0.000000 -0.000000 0.000000 -19.102989 -2.628496 -84.292595 2.372267 -12.076808 126.916783 -2.059535 -6.087054 -24.450651 0.000000 -0.000000 0.000000 -9.477149 -9.342592 59.124731 4.100058 -6.542005 -2.019042 3.075283 -7.547399 -2.511193 -13.712270 16.217221 -3.120798 5.258556 22.854923 -19.599389 -18.073006 -24.357479 7.741338 -43.848807 -19.564047 -9.732034 18.314448 -24.988281 -31.843980 44.584535 14.715000 -11.196423 14.740580 5.891577 6.956088 57.478035 -12.681553 -9.644198 -25.111179 15.262386 -34.057974 -8.828925 -6.193319 -12.701597 
0.729695 0.705406 0.461250 73.109984 -4.954290 57.734311 44.199834 23.328111 -51.049093 -11.600380 14.190530 127.505829 -1.098402 4.816959 -34.128595 0.000000 -0.000000 0.000000 -19.920657 -0.289557 -84.560584 4.070268 -11.130664 132.854600 -2.344847 -7.293862 -23.655486 0.000000 -0.000000 0.000000 -9.456713 -9.999147 60.182788 4.756833 -6.805526 -0.634333 3.181096 -7.444660 -2.542985 -14.827777 15.721421 -0.432560 5.631372 22.616033 -22.186149 -16.096501 -25.938729 6.835445 -33.383449 -20.362912 -16.412954 20.964737 -24.889376 -46.391168 45.086550 14.427102 -12.950202 14.408580 6.293782 6.728951 56.761511 -14.773526 -11.116462 -25.854043 11.888413 -39.486051 -13.149889 -8.003573 -8.634552 
0.736666 0.710197 0.435845 71.494421 -7.248727 50.018353 45.490354 19.960860 -45.777579 -12.620432 13.881048 131.696463 -2.205198 7.419899 -34.778535 0.000000 -0.000000 0.000000 -19.644535 4.865117 -82.572721 5.412316 -10.046136 136.626662 -2.815609 -9.766499 -22.429485 0.000000 -0.000000 0.000000 -9.779953 -10.089760 58.405620 6.159683 -6.163497 1.134404 3.413635 -7.230372 -2.593700 -14.773848 14.768226 1.998873 5.674167 20.829311 -24.513395 -12.126152 -26.455318 5.293833 -22.661072 -18.962331 -20.554339 22.455420 -28.461866 -51.089113 41.026581 13.432853 -18.166904 12.801307 5.607916 6.692103 55.747685 -17.917732 -11.996450 -27.190231 8.262153 -43.177736 -16.768894 -10.916005 -8.906933 
0.737298 0.719814 0.433808 73.089383 -8.225651 42.897735 42.257219 13.959689 -41.810155 -11.899954 14.139668 133.106810 -2.696790 11.382796 -33.832159 0.000000 -0.000000 0.000000 -18.617320 6.797201 -75.057654 7.073205 -7.895742 136.647307 -2.362541 -12.322144 -22.414416 0.000000 -0.000000 0.000000 -7.613407 -12.588384 55.798378 8.291511 -7.906842 -0.098634 3.314958 -7.786090 -1.464528 -13.933679 12.885998 0.748623 5.803178 20.094012 -25.279121 -6.892264 -26.317170 1.889265 -11.242855 -16.670210 -25.426677 23.731992 -30.912384 -56.331549 37.931214 11.207887 -19.793252 9.949915 4.185274 4.306473 53.074712 -20.754246 -12.098629 -27.850135 3.366628 -49.314023 -20.135176 -12.411041 -7.431333 
0.733609 0.725993 0.454648 73.627516 -10.563141 37.162713 38.909592 10.949639 -34.190519 -11.979195 14.202756 130.993909 -4.103624 12.573872 -31.644867 0.000000 -0.000000 0.000000 -16.609028 9.590398 -64.725568 8.333825 -5.039448 133.592598 -2.077673 -15.062619 -21.795879 0.000000 -0.000000 0.000000 -6.232707 -14.306060 49.534197 10.390178 -9.756126 -0.255315 3.625752 -7.972400 -0.018197 -12.524497 10.754698 -0.959238 5.661398 18.516751 -26.111108 -0.263200 -24.652077 -2.350778 -1.177618 -13.342429 -30.372069 24.451394 -32.250830 -63.134465 36.886423 7.731829 -20.361554 6.542019 2.204904 -0.175286 49.077266 -22.196013 -11.705601 -28.790665 -0.274109 -55.309015 -21.148657 -12.932334 -5.176273 
0.723673 0.730633 0.500549 73.682013 -16.894199 31.765494 34.104056 11.831368 -21.168049 -13.223311 13.735567 125.058007 -6.728772 10.706094 -26.969064 0.000000 -0.000000 0.000000 -13.803356 11.377424 -51.706551 10.393399 0.567843 127.523131 -1.736555 -18.518636 -22.482270 0.000000 -0.000000 0.000000 -6.504012 -14.020996 42.366573 11.774422 -11.235421 0.189596 5.137510 -8.097920 -0.177950 -10.989230 8.946533 -2.156306 4.065012 16.406659 -27.604903 5.537606 -22.051370 -5.324097 7.020951 -7.221737 -35.010249 24.621193 -33.183484 -67.642328 34.632881 4.295932 -20.648650 3.527307 0.563631 -5.137309 43.023809 -21.794522 -12.483404 -30.877269 -0.546538 -61.541618 -21.355727 -12.413951 -4.297179 
0.710929 0.732660 0.561473 75.632358 -24.645506 29.818534 27.671029 14.983369 -11.258716 -15.420433 14.172757 115.641298 -9.128058 7.990606 -17.548674 0.000000 -0.000000 0.000000 -15.865281 9.665916 -43.775801 11.516158 6.170566 120.203579 -3.087573 -22.482925 -17.505040 0.000000 -0.000000 0.000000 -5.471350 -13.826968 28.521132 12.905922 -13.007615 0.046577 6.208225 -8.663979 -0.136659 -9.762417 6.975251 -3.600343 1.526421 15.362834 -29.847668 11.114426 -17.972312 -6.241483 12.464959 -2.584681 -38.810550 25.145704 -32.403278 -71.724964 35.222806 1.209430 -19.861307 1.248624 -2.014804 -8.823970 33.975703 -17.228897 -14.167774 -33.597138 1.694527 -68.420959 -20.559624 -9.607496 -3.006366 
